<?xml version="1.0" standalone="no"?>
<!DOCTYPE svg PUBLIC "-//W3C//DTD SVG 20010904//EN"
 "http://www.w3.org/TR/2001/REC-SVG-20010904/DTD/svg10.dtd">
<svg version="1.0" xmlns="http://www.w3.org/2000/svg"
 width="317.000000pt" height="317.000000pt" viewBox="0 0 317.000000 317.000000"
 preserveAspectRatio="xMidYMid meet">
<metadata>
Created by potrace 1.14, written by Peter Selinger 2001-2017
</metadata>
<g transform="translate(0.000000,317.000000) scale(0.100000,-0.100000)"
fill="#000000" stroke="none">
<path d="M1170 3100 l0 -70 -140 0 -140 0 0 -70 0 -70 -70 0 -70 0 0 -70 0
-70 -70 0 -70 0 0 -70 0 -70 -70 0 -70 0 0 -135 0 -135 -65 0 -65 0 0 -345 0
-345 65 0 65 0 0 -205 0 -205 70 0 70 0 0 -70 0 -70 70 0 70 0 0 -275 0 -275
70 0 70 0 0 -70 0 -70 70 0 70 0 0 -65 0 -65 135 0 135 0 0 -70 0 -70 135 0
135 0 0 -70 0 -70 415 0 415 0 0 70 0 70 70 0 70 0 0 135 0 135 -70 0 -70 0 0
70 0 70 -65 0 -65 0 0 -70 0 -70 -140 0 -140 0 0 -65 0 -65 -135 0 -135 0 0
135 0 135 -75 0 -75 0 0 70 0 70 -135 0 -135 0 0 65 0 65 -135 0 -135 0 0 70
0 70 -70 0 -70 0 0 415 0 415 70 0 70 0 0 70 0 70 70 0 70 0 0 70 0 70 65 0
65 0 0 65 0 65 70 0 70 0 0 70 0 70 65 0 65 0 0 70 0 70 415 0 415 0 0 -70 0
-70 70 0 70 0 0 -70 0 -70 65 0 65 0 0 -65 0 -65 75 0 75 0 0 65 0 65 -70 0
-70 0 0 205 0 205 -70 0 -70 0 0 70 0 70 -70 0 -70 0 0 140 0 140 -135 0 -135
0 0 70 0 70 -480 0 -480 0 0 -70z"/>
<path d="M1300 1720 l0 -70 70 0 70 0 0 -70 0 -70 65 0 65 0 0 -65 0 -65 145
0 145 0 0 65 0 65 65 0 65 0 0 70 0 70 -65 0 -65 0 0 70 0 70 -280 0 -280 0 0
-70z"/>
<path d="M2400 1720 l0 -70 -65 0 -65 0 0 -135 0 -135 65 0 65 0 0 -140 0
-140 -65 0 -65 0 0 -65 0 -65 -140 0 -140 0 0 -75 0 -75 -65 0 -65 0 0 -65 0
-65 65 0 65 0 0 65 0 65 70 0 70 0 0 -65 0 -65 205 0 205 0 0 140 0 140 -70 0
-70 0 0 65 0 65 70 0 70 0 0 205 0 205 65 0 65 0 0 33 c0 19 3 82 7 140 l6
107 -141 0 -142 0 0 -70z m0 -830 l0 -70 -65 0 -65 0 0 70 0 70 65 0 65 0 0
-70z"/>
</g>
</svg>
